<svg xmlns="http://www.w3.org/2000/svg" version="1.1" xmlns:xlink="http://www.w3.org/1999/xlink" xmlns:svgjs="http://svgjs.com/svgjs" width="1307" height="617" preserveAspectRatio="none" viewBox="0 0 1307 617"><g mask="url(&quot;#SvgjsMask1434&quot;)" fill="none"><rect width="1307" height="617" x="0" y="0" fill="#0e2a47"></rect><path d="M46.89 164.91L111.84 202.41L111.84 277.41L46.89 314.91L-18.06 277.41L-18.06 202.41zM46.89 389.91L111.84 427.41L111.84 502.41L46.89 539.91L-18.06 502.41L-18.06 427.41zM111.84 502.41L176.8 539.91L176.8 614.91L111.84 652.41L46.89 614.91L46.89 539.91zM241.75 52.41L306.7 89.91L306.7 164.91L241.75 202.41L176.8 164.91L176.8 89.91zM371.66 52.41L436.61 89.91L436.61 164.91L371.66 202.41L306.7 164.91L306.7 89.91zM306.7 164.91L371.66 202.41L371.66 277.41L306.7 314.91L241.75 277.41L241.75 202.41zM306.7 389.91L371.66 427.41L371.66 502.41L306.7 539.91L241.75 502.41L241.75 427.41zM566.52 -60.09L631.47 -22.59L631.47 52.41L566.52 89.91L501.57 52.41L501.57 -22.59zM631.47 277.41L696.43 314.91L696.43 389.91L631.47 427.41L566.52 389.91L566.52 314.91zM631.47 502.41L696.43 539.91L696.43 614.91L631.47 652.41L566.52 614.91L566.52 539.91zM761.38 277.41L826.34 314.91L826.34 389.91L761.38 427.41L696.43 389.91L696.43 314.91zM761.38 502.41L826.34 539.91L826.34 614.91L761.38 652.41L696.43 614.91L696.43 539.91zM826.33 164.91L891.29 202.41L891.29 277.41L826.33 314.91L761.38 277.41L761.38 202.41zM891.29 277.41L956.24 314.91L956.24 389.91L891.29 427.41L826.33 389.91L826.33 314.91zM1021.2 52.41L1086.15 89.91L1086.15 164.91L1021.2 202.41L956.24 164.91L956.24 89.91zM956.24 389.91L1021.2 427.41L1021.2 502.41L956.24 539.91L891.29 502.41L891.29 427.41zM1021.2 502.41L1086.15 539.91L1086.15 614.91L1021.2 652.41L956.24 614.91L956.24 539.91zM1151.1 52.41L1216.06 89.91L1216.06 164.91L1151.1 202.41L1086.15 164.91L1086.15 89.91zM1151.1 502.41L1216.06 539.91L1216.06 614.91L1151.1 652.41L1086.15 614.91L1086.15 539.91zM1216.06 164.91L1281.01 202.41L1281.01 277.41L1216.06 314.91L1151.1 277.41L1151.1 202.41zM1281.01 277.41L1345.96 314.91L1345.96 389.91L1281.01 427.41L1216.06 389.91L1216.06 314.91zM1216.06 389.91L1281.01 427.41L1281.01 502.41L1216.06 539.91L1151.1 502.41L1151.1 427.41zM1281.01 502.41L1345.96 539.91L1345.96 614.91L1281.01 652.41L1216.06 614.91L1216.06 539.91zM1410.92 277.41L1475.87 314.91L1475.87 389.91L1410.92 427.41L1345.97 389.91L1345.97 314.91zM1345.97 389.91L1410.92 427.41L1410.92 502.41L1345.97 539.91L1281.01 502.41L1281.01 427.41zM1410.92 502.41L1475.87 539.91L1475.87 614.91L1410.92 652.41L1345.97 614.91L1345.97 539.91z" stroke="rgba(95, 0, 152, 1)" stroke-width="2"></path><path d="M39.39 164.91 a7.5 7.5 0 1 0 15 0 a7.5 7.5 0 1 0 -15 0zM104.34 202.41 a7.5 7.5 0 1 0 15 0 a7.5 7.5 0 1 0 -15 0zM104.34 277.41 a7.5 7.5 0 1 0 15 0 a7.5 7.5 0 1 0 -15 0zM39.39 314.91 a7.5 7.5 0 1 0 15 0 a7.5 7.5 0 1 0 -15 0zM-25.56 277.41 a7.5 7.5 0 1 0 15 0 a7.5 7.5 0 1 0 -15 0zM-25.56 202.41 a7.5 7.5 0 1 0 15 0 a7.5 7.5 0 1 0 -15 0zM39.39 389.91 a7.5 7.5 0 1 0 15 0 a7.5 7.5 0 1 0 -15 0zM104.34 427.41 a7.5 7.5 0 1 0 15 0 a7.5 7.5 0 1 0 -15 0zM104.34 502.41 a7.5 7.5 0 1 0 15 0 a7.5 7.5 0 1 0 -15 0zM39.39 539.91 a7.5 7.5 0 1 0 15 0 a7.5 7.5 0 1 0 -15 0zM-25.56 502.41 a7.5 7.5 0 1 0 15 0 a7.5 7.5 0 1 0 -15 0zM-25.56 427.41 a7.5 7.5 0 1 0 15 0 a7.5 7.5 0 1 0 -15 0zM169.3 539.91 a7.5 7.5 0 1 0 15 0 a7.5 7.5 0 1 0 -15 0zM169.3 614.91 a7.5 7.5 0 1 0 15 0 a7.5 7.5 0 1 0 -15 0zM104.34 652.41 a7.5 7.5 0 1 0 15 0 a7.5 7.5 0 1 0 -15 0zM39.39 614.91 a7.5 7.5 0 1 0 15 0 a7.5 7.5 0 1 0 -15 0zM234.25 52.41 a7.5 7.5 0 1 0 15 0 a7.5 7.5 0 1 0 -15 0zM299.2 89.91 a7.5 7.5 0 1 0 15 0 a7.5 7.5 0 1 0 -15 0zM299.2 164.91 a7.5 7.5 0 1 0 15 0 a7.5 7.5 0 1 0 -15 0zM234.25 202.41 a7.5 7.5 0 1 0 15 0 a7.5 7.5 0 1 0 -15 0zM169.3 164.91 a7.5 7.5 0 1 0 15 0 a7.5 7.5 0 1 0 -15 0zM169.3 89.91 a7.5 7.5 0 1 0 15 0 a7.5 7.5 0 1 0 -15 0zM364.16 52.41 a7.5 7.5 0 1 0 15 0 a7.5 7.5 0 1 0 -15 0zM429.11 89.91 a7.5 7.5 0 1 0 15 0 a7.5 7.5 0 1 0 -15 0zM429.11 164.91 a7.5 7.5 0 1 0 15 0 a7.5 7.5 0 1 0 -15 0zM364.16 202.41 a7.5 7.5 0 1 0 15 0 a7.5 7.5 0 1 0 -15 0zM364.16 277.41 a7.5 7.5 0 1 0 15 0 a7.5 7.5 0 1 0 -15 0zM299.2 314.91 a7.5 7.5 0 1 0 15 0 a7.5 7.5 0 1 0 -15 0zM234.25 277.41 a7.5 7.5 0 1 0 15 0 a7.5 7.5 0 1 0 -15 0zM299.2 389.91 a7.5 7.5 0 1 0 15 0 a7.5 7.5 0 1 0 -15 0zM364.16 427.41 a7.5 7.5 0 1 0 15 0 a7.5 7.5 0 1 0 -15 0zM364.16 502.41 a7.5 7.5 0 1 0 15 0 a7.5 7.5 0 1 0 -15 0zM299.2 539.91 a7.5 7.5 0 1 0 15 0 a7.5 7.5 0 1 0 -15 0zM234.25 502.41 a7.5 7.5 0 1 0 15 0 a7.5 7.5 0 1 0 -15 0zM234.25 427.41 a7.5 7.5 0 1 0 15 0 a7.5 7.5 0 1 0 -15 0zM559.02 -60.09 a7.5 7.5 0 1 0 15 0 a7.5 7.5 0 1 0 -15 0zM623.97 -22.59 a7.5 7.5 0 1 0 15 0 a7.5 7.5 0 1 0 -15 0zM623.97 52.41 a7.5 7.5 0 1 0 15 0 a7.5 7.5 0 1 0 -15 0zM559.02 89.91 a7.5 7.5 0 1 0 15 0 a7.5 7.5 0 1 0 -15 0zM494.07 52.41 a7.5 7.5 0 1 0 15 0 a7.5 7.5 0 1 0 -15 0zM494.07 -22.59 a7.5 7.5 0 1 0 15 0 a7.5 7.5 0 1 0 -15 0zM623.97 277.41 a7.5 7.5 0 1 0 15 0 a7.5 7.5 0 1 0 -15 0zM688.93 314.91 a7.5 7.5 0 1 0 15 0 a7.5 7.5 0 1 0 -15 0zM688.93 389.91 a7.5 7.5 0 1 0 15 0 a7.5 7.5 0 1 0 -15 0zM623.97 427.41 a7.5 7.5 0 1 0 15 0 a7.5 7.5 0 1 0 -15 0zM559.02 389.91 a7.5 7.5 0 1 0 15 0 a7.5 7.5 0 1 0 -15 0zM559.02 314.91 a7.5 7.5 0 1 0 15 0 a7.5 7.5 0 1 0 -15 0zM623.97 502.41 a7.5 7.5 0 1 0 15 0 a7.5 7.5 0 1 0 -15 0zM688.93 539.91 a7.5 7.5 0 1 0 15 0 a7.5 7.5 0 1 0 -15 0zM688.93 614.91 a7.5 7.5 0 1 0 15 0 a7.5 7.5 0 1 0 -15 0zM623.97 652.41 a7.5 7.5 0 1 0 15 0 a7.5 7.5 0 1 0 -15 0zM559.02 614.91 a7.5 7.5 0 1 0 15 0 a7.5 7.5 0 1 0 -15 0zM559.02 539.91 a7.5 7.5 0 1 0 15 0 a7.5 7.5 0 1 0 -15 0zM753.88 277.41 a7.5 7.5 0 1 0 15 0 a7.5 7.5 0 1 0 -15 0zM818.84 314.91 a7.5 7.5 0 1 0 15 0 a7.5 7.5 0 1 0 -15 0zM818.84 389.91 a7.5 7.5 0 1 0 15 0 a7.5 7.5 0 1 0 -15 0zM753.88 427.41 a7.5 7.5 0 1 0 15 0 a7.5 7.5 0 1 0 -15 0zM753.88 502.41 a7.5 7.5 0 1 0 15 0 a7.5 7.5 0 1 0 -15 0zM818.84 539.91 a7.5 7.5 0 1 0 15 0 a7.5 7.5 0 1 0 -15 0zM818.84 614.91 a7.5 7.5 0 1 0 15 0 a7.5 7.5 0 1 0 -15 0zM753.88 652.41 a7.5 7.5 0 1 0 15 0 a7.5 7.5 0 1 0 -15 0zM818.83 164.91 a7.5 7.5 0 1 0 15 0 a7.5 7.5 0 1 0 -15 0zM883.79 202.41 a7.5 7.5 0 1 0 15 0 a7.5 7.5 0 1 0 -15 0zM883.79 277.41 a7.5 7.5 0 1 0 15 0 a7.5 7.5 0 1 0 -15 0zM818.83 314.91 a7.5 7.5 0 1 0 15 0 a7.5 7.5 0 1 0 -15 0zM753.88 202.41 a7.5 7.5 0 1 0 15 0 a7.5 7.5 0 1 0 -15 0zM948.74 314.91 a7.5 7.5 0 1 0 15 0 a7.5 7.5 0 1 0 -15 0zM948.74 389.91 a7.5 7.5 0 1 0 15 0 a7.5 7.5 0 1 0 -15 0zM883.79 427.41 a7.5 7.5 0 1 0 15 0 a7.5 7.5 0 1 0 -15 0zM818.83 389.91 a7.5 7.5 0 1 0 15 0 a7.5 7.5 0 1 0 -15 0zM1013.7 52.41 a7.5 7.5 0 1 0 15 0 a7.5 7.5 0 1 0 -15 0zM1078.65 89.91 a7.5 7.5 0 1 0 15 0 a7.5 7.5 0 1 0 -15 0zM1078.65 164.91 a7.5 7.5 0 1 0 15 0 a7.5 7.5 0 1 0 -15 0zM1013.7 202.41 a7.5 7.5 0 1 0 15 0 a7.5 7.5 0 1 0 -15 0zM948.74 164.91 a7.5 7.5 0 1 0 15 0 a7.5 7.5 0 1 0 -15 0zM948.74 89.91 a7.5 7.5 0 1 0 15 0 a7.5 7.5 0 1 0 -15 0zM1013.7 427.41 a7.5 7.5 0 1 0 15 0 a7.5 7.5 0 1 0 -15 0zM1013.7 502.41 a7.5 7.5 0 1 0 15 0 a7.5 7.5 0 1 0 -15 0zM948.74 539.91 a7.5 7.5 0 1 0 15 0 a7.5 7.5 0 1 0 -15 0zM883.79 502.41 a7.5 7.5 0 1 0 15 0 a7.5 7.5 0 1 0 -15 0zM1078.65 539.91 a7.5 7.5 0 1 0 15 0 a7.5 7.5 0 1 0 -15 0zM1078.65 614.91 a7.5 7.5 0 1 0 15 0 a7.5 7.5 0 1 0 -15 0zM1013.7 652.41 a7.5 7.5 0 1 0 15 0 a7.5 7.5 0 1 0 -15 0zM948.74 614.91 a7.5 7.5 0 1 0 15 0 a7.5 7.5 0 1 0 -15 0zM1143.6 52.41 a7.5 7.5 0 1 0 15 0 a7.5 7.5 0 1 0 -15 0zM1208.56 89.91 a7.5 7.5 0 1 0 15 0 a7.5 7.5 0 1 0 -15 0zM1208.56 164.91 a7.5 7.5 0 1 0 15 0 a7.5 7.5 0 1 0 -15 0zM1143.6 202.41 a7.5 7.5 0 1 0 15 0 a7.5 7.5 0 1 0 -15 0zM1143.6 502.41 a7.5 7.5 0 1 0 15 0 a7.5 7.5 0 1 0 -15 0zM1208.56 539.91 a7.5 7.5 0 1 0 15 0 a7.5 7.5 0 1 0 -15 0zM1208.56 614.91 a7.5 7.5 0 1 0 15 0 a7.5 7.5 0 1 0 -15 0zM1143.6 652.41 a7.5 7.5 0 1 0 15 0 a7.5 7.5 0 1 0 -15 0zM1273.51 202.41 a7.5 7.5 0 1 0 15 0 a7.5 7.5 0 1 0 -15 0zM1273.51 277.41 a7.5 7.5 0 1 0 15 0 a7.5 7.5 0 1 0 -15 0zM1208.56 314.91 a7.5 7.5 0 1 0 15 0 a7.5 7.5 0 1 0 -15 0zM1143.6 277.41 a7.5 7.5 0 1 0 15 0 a7.5 7.5 0 1 0 -15 0zM1338.46 314.91 a7.5 7.5 0 1 0 15 0 a7.5 7.5 0 1 0 -15 0zM1338.46 389.91 a7.5 7.5 0 1 0 15 0 a7.5 7.5 0 1 0 -15 0zM1273.51 427.41 a7.5 7.5 0 1 0 15 0 a7.5 7.5 0 1 0 -15 0zM1208.56 389.91 a7.5 7.5 0 1 0 15 0 a7.5 7.5 0 1 0 -15 0zM1273.51 502.41 a7.5 7.5 0 1 0 15 0 a7.5 7.5 0 1 0 -15 0zM1143.6 427.41 a7.5 7.5 0 1 0 15 0 a7.5 7.5 0 1 0 -15 0zM1338.46 539.91 a7.5 7.5 0 1 0 15 0 a7.5 7.5 0 1 0 -15 0zM1338.46 614.91 a7.5 7.5 0 1 0 15 0 a7.5 7.5 0 1 0 -15 0zM1273.51 652.41 a7.5 7.5 0 1 0 15 0 a7.5 7.5 0 1 0 -15 0zM1403.42 277.41 a7.5 7.5 0 1 0 15 0 a7.5 7.5 0 1 0 -15 0zM1468.37 314.91 a7.5 7.5 0 1 0 15 0 a7.5 7.5 0 1 0 -15 0zM1468.37 389.91 a7.5 7.5 0 1 0 15 0 a7.5 7.5 0 1 0 -15 0zM1403.42 427.41 a7.5 7.5 0 1 0 15 0 a7.5 7.5 0 1 0 -15 0zM1338.47 389.91 a7.5 7.5 0 1 0 15 0 a7.5 7.5 0 1 0 -15 0zM1338.47 314.91 a7.5 7.5 0 1 0 15 0 a7.5 7.5 0 1 0 -15 0zM1403.42 502.41 a7.5 7.5 0 1 0 15 0 a7.5 7.5 0 1 0 -15 0zM1338.47 539.91 a7.5 7.5 0 1 0 15 0 a7.5 7.5 0 1 0 -15 0zM1468.37 539.91 a7.5 7.5 0 1 0 15 0 a7.5 7.5 0 1 0 -15 0zM1468.37 614.91 a7.5 7.5 0 1 0 15 0 a7.5 7.5 0 1 0 -15 0zM1403.42 652.41 a7.5 7.5 0 1 0 15 0 a7.5 7.5 0 1 0 -15 0zM1338.47 614.91 a7.5 7.5 0 1 0 15 0 a7.5 7.5 0 1 0 -15 0z" fill="rgba(95, 0, 152, 1)"></path><path d="M4.59 -8.05L47.89 16.95L47.89 66.95L4.59 91.95L-38.71 66.95L-38.71 16.95zM47.89 66.95L91.2 91.95L91.2 141.95L47.89 166.95L4.59 141.95L4.59 91.95zM47.89 216.95L91.2 241.95L91.2 291.95L47.89 316.95L4.59 291.95L4.59 241.95zM91.2 291.95L134.5 316.95L134.5 366.95L91.2 391.95L47.89 366.95L47.89 316.95zM134.5 516.95L177.8 541.95L177.8 591.95L134.5 616.95L91.2 591.95L91.2 541.95zM91.2 591.95L134.5 616.95L134.5 666.95L91.2 691.95L47.89 666.95L47.89 616.95zM221.1 366.95L264.4 391.95L264.4 441.95L221.1 466.95L177.8 441.95L177.8 391.95zM264.4 -8.05L307.71 16.95L307.71 66.95L264.4 91.95L221.1 66.95L221.1 16.95zM264.4 141.95L307.71 166.95L307.71 216.95L264.4 241.95L221.1 216.95L221.1 166.95zM307.71 366.95L351.01 391.95L351.01 441.95L307.71 466.95L264.4 441.95L264.4 391.95zM480.92 366.95L524.22 391.95L524.22 441.95L480.92 466.95L437.62 441.95L437.62 391.95zM437.62 441.95L480.92 466.95L480.92 516.95L437.62 541.95L394.31 516.95L394.31 466.95zM480.92 516.95L524.22 541.95L524.22 591.95L480.92 616.95L437.62 591.95L437.62 541.95zM524.22 141.95L567.52 166.95L567.52 216.95L524.22 241.95L480.92 216.95L480.92 166.95zM567.52 216.95L610.83 241.95L610.83 291.95L567.52 316.95L524.22 291.95L524.22 241.95zM654.13 216.95L697.43 241.95L697.43 291.95L654.13 316.95L610.83 291.95L610.83 241.95zM697.43 -8.05L740.73 16.95L740.73 66.95L697.43 91.95L654.13 66.95L654.13 16.95zM740.73 66.95L784.04 91.95L784.04 141.95L740.73 166.95L697.43 141.95L697.43 91.95zM740.73 216.95L784.04 241.95L784.04 291.95L740.73 316.95L697.43 291.95L697.43 241.95zM697.43 291.95L740.73 316.95L740.73 366.95L697.43 391.95L654.13 366.95L654.13 316.95zM827.34 66.95L870.64 91.95L870.64 141.95L827.34 166.95L784.04 141.95L784.04 91.95zM784.04 291.95L827.34 316.95L827.34 366.95L784.04 391.95L740.73 366.95L740.73 316.95zM784.04 441.95L827.34 466.95L827.34 516.95L784.04 541.95L740.73 516.95L740.73 466.95zM827.34 516.95L870.64 541.95L870.64 591.95L827.34 616.95L784.04 591.95L784.04 541.95zM784.04 591.95L827.34 616.95L827.34 666.95L784.04 691.95L740.73 666.95L740.73 616.95zM913.94 216.95L957.25 241.95L957.25 291.95L913.94 316.95L870.64 291.95L870.64 241.95zM913.94 516.95L957.25 541.95L957.25 591.95L913.94 616.95L870.64 591.95L870.64 541.95zM957.25 141.95L1000.55 166.95L1000.55 216.95L957.25 241.95L913.94 216.95L913.94 166.95zM1000.55 216.95L1043.85 241.95L1043.85 291.95L1000.55 316.95L957.25 291.95L957.25 241.95zM957.25 291.95L1000.55 316.95L1000.55 366.95L957.25 391.95L913.94 366.95L913.94 316.95zM1043.85 -8.05L1087.15 16.95L1087.15 66.95L1043.85 91.95L1000.55 66.95L1000.55 16.95zM1043.85 141.95L1087.15 166.95L1087.15 216.95L1043.85 241.95L1000.55 216.95L1000.55 166.95zM1043.85 441.95L1087.15 466.95L1087.15 516.95L1043.85 541.95L1000.55 516.95L1000.55 466.95zM1087.15 516.95L1130.45 541.95L1130.45 591.95L1087.15 616.95L1043.85 591.95L1043.85 541.95zM1173.76 216.95L1217.06 241.95L1217.06 291.95L1173.76 316.95L1130.45 291.95L1130.45 241.95zM1173.76 366.95L1217.06 391.95L1217.06 441.95L1173.76 466.95L1130.45 441.95L1130.45 391.95zM1130.45 441.95L1173.76 466.95L1173.76 516.95L1130.45 541.95L1087.15 516.95L1087.15 466.95zM1130.45 591.95L1173.76 616.95L1173.76 666.95L1130.45 691.95L1087.15 666.95L1087.15 616.95zM1217.06 -8.05L1260.36 16.95L1260.36 66.95L1217.06 91.95L1173.76 66.95L1173.76 16.95zM1260.36 216.95L1303.66 241.95L1303.66 291.95L1260.36 316.95L1217.06 291.95L1217.06 241.95zM1217.06 441.95L1260.36 466.95L1260.36 516.95L1217.06 541.95L1173.76 516.95L1173.76 466.95zM1260.36 516.95L1303.66 541.95L1303.66 591.95L1260.36 616.95L1217.06 591.95L1217.06 541.95zM1217.06 591.95L1260.36 616.95L1260.36 666.95L1217.06 691.95L1173.76 666.95L1173.76 616.95zM1303.66 -8.05L1346.97 16.95L1346.97 66.95L1303.66 91.95L1260.36 66.95L1260.36 16.95zM1346.97 66.95L1390.27 91.95L1390.27 141.95L1346.97 166.95L1303.66 141.95L1303.66 91.95zM1346.97 366.95L1390.27 391.95L1390.27 441.95L1346.97 466.95L1303.66 441.95L1303.66 391.95z" stroke="url(#SvgjsLinearGradient1435)" stroke-width="2"></path></g><defs><mask id="SvgjsMask1434"><rect width="1307" height="617" fill="#ffffff"></rect></mask><linearGradient x1="172.524" y1="-172.5132" x2="1134.4759999999999" y2="789.5131999999999" gradientUnits="userSpaceOnUse" id="SvgjsLinearGradient1435"><stop stop-color="#0e2a47" offset="0"></stop><stop stop-color="rgba(197, 14, 255, 1)" offset="1"></stop></linearGradient></defs></svg>