<svg xmlns="http://www.w3.org/2000/svg" version="1.1" xmlns:xlink="http://www.w3.org/1999/xlink" xmlns:svgjs="http://svgjs.com/svgjs" width="1307" height="560" preserveAspectRatio="none" viewBox="0 0 1307 560"><g mask="url(&quot;#SvgjsMask1320&quot;)" fill="none"><rect width="1307" height="560" x="0" y="0" fill="#0e2a47"></rect><path d="M167.16 160.19L232.11 197.69L232.11 272.69L167.16 310.19L102.2 272.69L102.2 197.69zM297.06 -64.81L362.02 -27.31L362.02 47.69L297.06 85.19L232.11 47.69L232.11 -27.31zM297.06 385.19L362.02 422.69L362.02 497.69L297.06 535.19L232.11 497.69L232.11 422.69zM491.93 272.69L556.88 310.19L556.88 385.19L491.93 422.69L426.97 385.19L426.97 310.19zM556.88 160.19L621.83 197.69L621.83 272.69L556.88 310.19L491.93 272.69L491.93 197.69zM621.83 272.69L686.79 310.19L686.79 385.19L621.83 422.69L556.88 385.19L556.88 310.19zM686.79 160.19L751.74 197.69L751.74 272.69L686.79 310.19L621.83 272.69L621.83 197.69zM686.79 385.19L751.74 422.69L751.74 497.69L686.79 535.19L621.83 497.69L621.83 422.69zM946.6 -64.81L1011.56 -27.31L1011.56 47.69L946.6 85.19L881.65 47.69L881.65 -27.31zM946.6 160.19L1011.56 197.69L1011.56 272.69L946.6 310.19L881.65 272.69L881.65 197.69zM1076.51 -64.81L1141.46 -27.31L1141.46 47.69L1076.51 85.19L1011.56 47.69L1011.56 -27.31zM1206.42 -64.81L1271.37 -27.31L1271.37 47.69L1206.42 85.19L1141.46 47.69L1141.46 -27.31zM1336.33 -64.81L1401.28 -27.31L1401.28 47.69L1336.33 85.19L1271.37 47.69L1271.37 -27.31z" stroke="rgba(95, 0, 152, 1)" stroke-width="2"></path><path d="M159.66 160.19 a7.5 7.5 0 1 0 15 0 a7.5 7.5 0 1 0 -15 0zM224.61 197.69 a7.5 7.5 0 1 0 15 0 a7.5 7.5 0 1 0 -15 0zM224.61 272.69 a7.5 7.5 0 1 0 15 0 a7.5 7.5 0 1 0 -15 0zM159.66 310.19 a7.5 7.5 0 1 0 15 0 a7.5 7.5 0 1 0 -15 0zM94.7 272.69 a7.5 7.5 0 1 0 15 0 a7.5 7.5 0 1 0 -15 0zM94.7 197.69 a7.5 7.5 0 1 0 15 0 a7.5 7.5 0 1 0 -15 0zM289.56 -64.81 a7.5 7.5 0 1 0 15 0 a7.5 7.5 0 1 0 -15 0zM354.52 -27.31 a7.5 7.5 0 1 0 15 0 a7.5 7.5 0 1 0 -15 0zM354.52 47.69 a7.5 7.5 0 1 0 15 0 a7.5 7.5 0 1 0 -15 0zM289.56 85.19 a7.5 7.5 0 1 0 15 0 a7.5 7.5 0 1 0 -15 0zM224.61 47.69 a7.5 7.5 0 1 0 15 0 a7.5 7.5 0 1 0 -15 0zM224.61 -27.31 a7.5 7.5 0 1 0 15 0 a7.5 7.5 0 1 0 -15 0zM289.56 385.19 a7.5 7.5 0 1 0 15 0 a7.5 7.5 0 1 0 -15 0zM354.52 422.69 a7.5 7.5 0 1 0 15 0 a7.5 7.5 0 1 0 -15 0zM354.52 497.69 a7.5 7.5 0 1 0 15 0 a7.5 7.5 0 1 0 -15 0zM289.56 535.19 a7.5 7.5 0 1 0 15 0 a7.5 7.5 0 1 0 -15 0zM224.61 497.69 a7.5 7.5 0 1 0 15 0 a7.5 7.5 0 1 0 -15 0zM224.61 422.69 a7.5 7.5 0 1 0 15 0 a7.5 7.5 0 1 0 -15 0zM484.43 272.69 a7.5 7.5 0 1 0 15 0 a7.5 7.5 0 1 0 -15 0zM549.38 310.19 a7.5 7.5 0 1 0 15 0 a7.5 7.5 0 1 0 -15 0zM549.38 385.19 a7.5 7.5 0 1 0 15 0 a7.5 7.5 0 1 0 -15 0zM484.43 422.69 a7.5 7.5 0 1 0 15 0 a7.5 7.5 0 1 0 -15 0zM419.47 385.19 a7.5 7.5 0 1 0 15 0 a7.5 7.5 0 1 0 -15 0zM419.47 310.19 a7.5 7.5 0 1 0 15 0 a7.5 7.5 0 1 0 -15 0zM549.38 160.19 a7.5 7.5 0 1 0 15 0 a7.5 7.5 0 1 0 -15 0zM614.33 197.69 a7.5 7.5 0 1 0 15 0 a7.5 7.5 0 1 0 -15 0zM614.33 272.69 a7.5 7.5 0 1 0 15 0 a7.5 7.5 0 1 0 -15 0zM484.43 197.69 a7.5 7.5 0 1 0 15 0 a7.5 7.5 0 1 0 -15 0zM679.29 310.19 a7.5 7.5 0 1 0 15 0 a7.5 7.5 0 1 0 -15 0zM679.29 385.19 a7.5 7.5 0 1 0 15 0 a7.5 7.5 0 1 0 -15 0zM614.33 422.69 a7.5 7.5 0 1 0 15 0 a7.5 7.5 0 1 0 -15 0zM679.29 160.19 a7.5 7.5 0 1 0 15 0 a7.5 7.5 0 1 0 -15 0zM744.24 197.69 a7.5 7.5 0 1 0 15 0 a7.5 7.5 0 1 0 -15 0zM744.24 272.69 a7.5 7.5 0 1 0 15 0 a7.5 7.5 0 1 0 -15 0zM744.24 422.69 a7.5 7.5 0 1 0 15 0 a7.5 7.5 0 1 0 -15 0zM744.24 497.69 a7.5 7.5 0 1 0 15 0 a7.5 7.5 0 1 0 -15 0zM679.29 535.19 a7.5 7.5 0 1 0 15 0 a7.5 7.5 0 1 0 -15 0zM614.33 497.69 a7.5 7.5 0 1 0 15 0 a7.5 7.5 0 1 0 -15 0zM939.1 -64.81 a7.5 7.5 0 1 0 15 0 a7.5 7.5 0 1 0 -15 0zM1004.06 -27.31 a7.5 7.5 0 1 0 15 0 a7.5 7.5 0 1 0 -15 0zM1004.06 47.69 a7.5 7.5 0 1 0 15 0 a7.5 7.5 0 1 0 -15 0zM939.1 85.19 a7.5 7.5 0 1 0 15 0 a7.5 7.5 0 1 0 -15 0zM874.15 47.69 a7.5 7.5 0 1 0 15 0 a7.5 7.5 0 1 0 -15 0zM874.15 -27.31 a7.5 7.5 0 1 0 15 0 a7.5 7.5 0 1 0 -15 0zM939.1 160.19 a7.5 7.5 0 1 0 15 0 a7.5 7.5 0 1 0 -15 0zM1004.06 197.69 a7.5 7.5 0 1 0 15 0 a7.5 7.5 0 1 0 -15 0zM1004.06 272.69 a7.5 7.5 0 1 0 15 0 a7.5 7.5 0 1 0 -15 0zM939.1 310.19 a7.5 7.5 0 1 0 15 0 a7.5 7.5 0 1 0 -15 0zM874.15 272.69 a7.5 7.5 0 1 0 15 0 a7.5 7.5 0 1 0 -15 0zM874.15 197.69 a7.5 7.5 0 1 0 15 0 a7.5 7.5 0 1 0 -15 0zM1069.01 -64.81 a7.5 7.5 0 1 0 15 0 a7.5 7.5 0 1 0 -15 0zM1133.96 -27.31 a7.5 7.5 0 1 0 15 0 a7.5 7.5 0 1 0 -15 0zM1133.96 47.69 a7.5 7.5 0 1 0 15 0 a7.5 7.5 0 1 0 -15 0zM1069.01 85.19 a7.5 7.5 0 1 0 15 0 a7.5 7.5 0 1 0 -15 0zM1198.92 -64.81 a7.5 7.5 0 1 0 15 0 a7.5 7.5 0 1 0 -15 0zM1263.87 -27.31 a7.5 7.5 0 1 0 15 0 a7.5 7.5 0 1 0 -15 0zM1263.87 47.69 a7.5 7.5 0 1 0 15 0 a7.5 7.5 0 1 0 -15 0zM1198.92 85.19 a7.5 7.5 0 1 0 15 0 a7.5 7.5 0 1 0 -15 0zM1328.83 -64.81 a7.5 7.5 0 1 0 15 0 a7.5 7.5 0 1 0 -15 0zM1393.78 -27.31 a7.5 7.5 0 1 0 15 0 a7.5 7.5 0 1 0 -15 0zM1393.78 47.69 a7.5 7.5 0 1 0 15 0 a7.5 7.5 0 1 0 -15 0zM1328.83 85.19 a7.5 7.5 0 1 0 15 0 a7.5 7.5 0 1 0 -15 0z" fill="rgba(95, 0, 152, 1)"></path><path d="M5.66 -27.96L48.96 -2.96L48.96 47.04L5.66 72.04L-37.64 47.04L-37.64 -2.96zM48.96 497.04L92.27 522.04L92.27 572.04L48.96 597.04L5.66 572.04L5.66 522.04zM92.27 122.04L135.57 147.04L135.57 197.04L92.27 222.04L48.96 197.04L48.96 147.04zM92.27 272.04L135.57 297.04L135.57 347.04L92.27 372.04L48.96 347.04L48.96 297.04zM135.57 347.04L178.87 372.04L178.87 422.04L135.57 447.04L92.27 422.04L92.27 372.04zM222.17 197.04L265.48 222.04L265.48 272.04L222.17 297.04L178.87 272.04L178.87 222.04zM265.48 272.04L308.78 297.04L308.78 347.04L265.48 372.04L222.17 347.04L222.17 297.04zM308.78 347.04L352.08 372.04L352.08 422.04L308.78 447.04L265.48 422.04L265.48 372.04zM265.48 422.04L308.78 447.04L308.78 497.04L265.48 522.04L222.17 497.04L222.17 447.04zM395.38 197.04L438.69 222.04L438.69 272.04L395.38 297.04L352.08 272.04L352.08 222.04zM352.08 272.04L395.38 297.04L395.38 347.04L352.08 372.04L308.78 347.04L308.78 297.04zM352.08 422.04L395.38 447.04L395.38 497.04L352.08 522.04L308.78 497.04L308.78 447.04zM438.69 -27.96L481.99 -2.96L481.99 47.04L438.69 72.04L395.38 47.04L395.38 -2.96zM481.99 197.04L525.29 222.04L525.29 272.04L481.99 297.04L438.69 272.04L438.69 222.04zM568.59 347.04L611.89 372.04L611.89 422.04L568.59 447.04L525.29 422.04L525.29 372.04zM525.29 422.04L568.59 447.04L568.59 497.04L525.29 522.04L481.99 497.04L481.99 447.04zM568.59 497.04L611.89 522.04L611.89 572.04L568.59 597.04L525.29 572.04L525.29 522.04zM611.89 422.04L655.2 447.04L655.2 497.04L611.89 522.04L568.59 497.04L568.59 447.04zM655.2 497.04L698.5 522.04L698.5 572.04L655.2 597.04L611.89 572.04L611.89 522.04zM698.5 122.04L741.8 147.04L741.8 197.04L698.5 222.04L655.2 197.04L655.2 147.04zM741.8 197.04L785.11 222.04L785.11 272.04L741.8 297.04L698.5 272.04L698.5 222.04zM785.11 122.04L828.41 147.04L828.41 197.04L785.11 222.04L741.8 197.04L741.8 147.04zM828.41 497.04L871.71 522.04L871.71 572.04L828.41 597.04L785.11 572.04L785.11 522.04zM871.71 272.04L915.01 297.04L915.01 347.04L871.71 372.04L828.41 347.04L828.41 297.04zM915.01 347.04L958.32 372.04L958.32 422.04L915.01 447.04L871.71 422.04L871.71 372.04zM1001.62 347.04L1044.92 372.04L1044.92 422.04L1001.62 447.04L958.32 422.04L958.32 372.04zM958.32 422.04L1001.62 447.04L1001.62 497.04L958.32 522.04L915.01 497.04L915.01 447.04zM1001.62 497.04L1044.92 522.04L1044.92 572.04L1001.62 597.04L958.32 572.04L958.32 522.04zM1088.22 47.04L1131.53 72.04L1131.53 122.04L1088.22 147.04L1044.92 122.04L1044.92 72.04zM1088.22 197.04L1131.53 222.04L1131.53 272.04L1088.22 297.04L1044.92 272.04L1044.92 222.04zM1088.22 497.04L1131.53 522.04L1131.53 572.04L1088.22 597.04L1044.92 572.04L1044.92 522.04zM1131.53 -27.96L1174.83 -2.96L1174.83 47.04L1131.53 72.04L1088.22 47.04L1088.22 -2.96zM1131.53 272.04L1174.83 297.04L1174.83 347.04L1131.53 372.04L1088.22 347.04L1088.22 297.04zM1131.53 422.04L1174.83 447.04L1174.83 497.04L1131.53 522.04L1088.22 497.04L1088.22 447.04zM1261.43 197.04L1304.74 222.04L1304.74 272.04L1261.43 297.04L1218.13 272.04L1218.13 222.04zM1218.13 422.04L1261.43 447.04L1261.43 497.04L1218.13 522.04L1174.83 497.04L1174.83 447.04zM1348.04 47.04L1391.34 72.04L1391.34 122.04L1348.04 147.04L1304.74 122.04L1304.74 72.04zM1304.74 272.04L1348.04 297.04L1348.04 347.04L1304.74 372.04L1261.43 347.04L1261.43 297.04z" stroke="url(#SvgjsLinearGradient1321)" stroke-width="2"></path></g><defs><mask id="SvgjsMask1320"><rect width="1307" height="560" fill="#ffffff"></rect></mask><linearGradient x1="186.7703" y1="-186.76000000000002" x2="1120.2296999999999" y2="746.76" gradientUnits="userSpaceOnUse" id="SvgjsLinearGradient1321"><stop stop-color="#0e2a47" offset="0"></stop><stop stop-color="rgba(197, 14, 255, 1)" offset="1"></stop></linearGradient></defs></svg>