<svg xmlns="http://www.w3.org/2000/svg" version="1.1" xmlns:xlink="http://www.w3.org/1999/xlink" xmlns:svgjs="http://svgjs.com/svgjs" width="1440" height="560" preserveAspectRatio="none" viewBox="0 0 1440 560"><g mask="url(&quot;#SvgjsMask4776&quot;)" fill="none"><rect width="1440" height="560" x="0" y="0" fill="url(#SvgjsLinearGradient4777)"></rect><path d="M-62.51 348.76L-62.51 348.76" stroke="rgba(70, 26, 96, 1)" stroke-width="1.5"></path><path d="M-62.51 348.76L43.49 388.58" stroke="rgba(70, 26, 96, 1)" stroke-width="1.5"></path><path d="M-62.51 348.76L-80.17 526.66" stroke="rgba(70, 26, 96, 1)" stroke-width="1.5"></path><path d="M-80.17 526.66L-80.17 526.66" stroke="rgba(70, 26, 96, 1)" stroke-width="1.5"></path><path d="M-80.17 526.66L66.1 537.61" stroke="rgba(70, 26, 96, 1)" stroke-width="1.5"></path><path d="M-80.17 526.66L-49.42 693.59" stroke="rgba(70, 26, 96, 1)" stroke-width="1.5"></path><path d="M-80.17 526.66L43.49 388.58" stroke="rgba(70, 26, 96, 1)" stroke-width="1.5"></path><path d="M-80.17 526.66L190.52 503.69" stroke="rgba(70, 26, 96, 1)" stroke-width="1.5"></path><path d="M-49.42 693.59L-49.42 693.59" stroke="rgba(70, 26, 96, 1)" stroke-width="1.5"></path><path d="M-49.42 693.59L66.1 537.61" stroke="rgba(70, 26, 96, 1)" stroke-width="1.5"></path><path d="M-49.42 693.59L212.46 665.82" stroke="rgba(70, 26, 96, 1)" stroke-width="1.5"></path><path d="M-49.42 693.59L190.52 503.69" stroke="rgba(70, 26, 96, 1)" stroke-width="1.5"></path><path d="M-49.42 693.59L43.49 388.58" stroke="rgba(70, 26, 96, 1)" stroke-width="1.5"></path><path d="M43.49 388.58L43.49 388.58" stroke="rgba(70, 26, 96, 1)" stroke-width="1.5"></path><path d="M43.49 388.58L188.92 411.68" stroke="rgba(70, 26, 96, 1)" stroke-width="1.5"></path><path d="M66.1 537.61L66.1 537.61" stroke="rgba(70, 26, 96, 1)" stroke-width="1.5"></path><path d="M66.1 537.61L190.52 503.69" stroke="rgba(70, 26, 96, 1)" stroke-width="1.5"></path><path d="M66.1 537.61L43.49 388.58" stroke="rgba(70, 26, 96, 1)" stroke-width="1.5"></path><path d="M66.1 537.61L188.92 411.68" stroke="rgba(70, 26, 96, 1)" stroke-width="1.5"></path><path d="M188.92 411.68L188.92 411.68" stroke="rgba(70, 26, 96, 1)" stroke-width="1.5"></path><path d="M188.92 411.68L190.52 503.69" stroke="rgba(70, 26, 96, 1)" stroke-width="1.5"></path><path d="M190.52 503.69L190.52 503.69" stroke="rgba(70, 26, 96, 1)" stroke-width="1.5"></path><path d="M190.52 503.69L212.46 665.82" stroke="rgba(70, 26, 96, 1)" stroke-width="1.5"></path><path d="M190.52 503.69L43.49 388.58" stroke="rgba(70, 26, 96, 1)" stroke-width="1.5"></path><path d="M190.52 503.69L404.78 489.22" stroke="rgba(70, 26, 96, 1)" stroke-width="1.5"></path><path d="M190.52 503.69L379.74 386.5" stroke="rgba(70, 26, 96, 1)" stroke-width="1.5"></path><path d="M212.46 665.82L212.46 665.82" stroke="rgba(70, 26, 96, 1)" stroke-width="1.5"></path><path d="M212.46 665.82L387.01 708.45" stroke="rgba(70, 26, 96, 1)" stroke-width="1.5"></path><path d="M379.74 386.5L379.74 386.5" stroke="rgba(70, 26, 96, 1)" stroke-width="1.5"></path><path d="M379.74 386.5L404.78 489.22" stroke="rgba(70, 26, 96, 1)" stroke-width="1.5"></path><path d="M379.74 386.5L491.43 407.52" stroke="rgba(70, 26, 96, 1)" stroke-width="1.5"></path><path d="M379.74 386.5L508.15 503.74" stroke="rgba(70, 26, 96, 1)" stroke-width="1.5"></path><path d="M379.74 386.5L188.92 411.68" stroke="rgba(70, 26, 96, 1)" stroke-width="1.5"></path><path d="M404.78 489.22L404.78 489.22" stroke="rgba(70, 26, 96, 1)" stroke-width="1.5"></path><path d="M404.78 489.22L508.15 503.74" stroke="rgba(70, 26, 96, 1)" stroke-width="1.5"></path><path d="M404.78 489.22L491.43 407.52" stroke="rgba(70, 26, 96, 1)" stroke-width="1.5"></path><path d="M387.01 708.45L387.01 708.45" stroke="rgba(70, 26, 96, 1)" stroke-width="1.5"></path><path d="M387.01 708.45L524.48 681.39" stroke="rgba(70, 26, 96, 1)" stroke-width="1.5"></path><path d="M387.01 708.45L404.78 489.22" stroke="rgba(70, 26, 96, 1)" stroke-width="1.5"></path><path d="M387.01 708.45L508.15 503.74" stroke="rgba(70, 26, 96, 1)" stroke-width="1.5"></path><path d="M387.01 708.45L652.82 649.61" stroke="rgba(70, 26, 96, 1)" stroke-width="1.5"></path><path d="M387.01 708.45L190.52 503.69" stroke="rgba(70, 26, 96, 1)" stroke-width="1.5"></path><path d="M491.43 407.52L491.43 407.52" stroke="rgba(70, 26, 96, 1)" stroke-width="1.5"></path><path d="M491.43 407.52L508.15 503.74" stroke="rgba(70, 26, 96, 1)" stroke-width="1.5"></path><path d="M508.15 503.74L508.15 503.74" stroke="rgba(70, 26, 96, 1)" stroke-width="1.5"></path><path d="M508.15 503.74L675.95 523.47" stroke="rgba(70, 26, 96, 1)" stroke-width="1.5"></path><path d="M508.15 503.74L524.48 681.39" stroke="rgba(70, 26, 96, 1)" stroke-width="1.5"></path><path d="M508.15 503.74L652.82 649.61" stroke="rgba(70, 26, 96, 1)" stroke-width="1.5"></path><path d="M524.48 681.39L524.48 681.39" stroke="rgba(70, 26, 96, 1)" stroke-width="1.5"></path><path d="M524.48 681.39L652.82 649.61" stroke="rgba(70, 26, 96, 1)" stroke-width="1.5"></path><path d="M524.48 681.39L675.95 523.47" stroke="rgba(70, 26, 96, 1)" stroke-width="1.5"></path><path d="M524.48 681.39L404.78 489.22" stroke="rgba(70, 26, 96, 1)" stroke-width="1.5"></path><path d="M709.67 380.46L709.67 380.46" stroke="rgba(70, 26, 96, 1)" stroke-width="1.5"></path><path d="M709.67 380.46L832 403.92" stroke="rgba(70, 26, 96, 1)" stroke-width="1.5"></path><path d="M709.67 380.46L675.95 523.47" stroke="rgba(70, 26, 96, 1)" stroke-width="1.5"></path><path d="M709.67 380.46L810.72 260.82" stroke="rgba(70, 26, 96, 1)" stroke-width="1.5"></path><path d="M709.67 380.46L805.38 506.47" stroke="rgba(70, 26, 96, 1)" stroke-width="1.5"></path><path d="M709.67 380.46L491.43 407.52" stroke="rgba(70, 26, 96, 1)" stroke-width="1.5"></path><path d="M675.95 523.47L675.95 523.47" stroke="rgba(70, 26, 96, 1)" stroke-width="1.5"></path><path d="M675.95 523.47L652.82 649.61" stroke="rgba(70, 26, 96, 1)" stroke-width="1.5"></path><path d="M675.95 523.47L805.38 506.47" stroke="rgba(70, 26, 96, 1)" stroke-width="1.5"></path><path d="M652.82 649.61L652.82 649.61" stroke="rgba(70, 26, 96, 1)" stroke-width="1.5"></path><path d="M823.37 111.87L823.37 111.87" stroke="rgba(70, 26, 96, 1)" stroke-width="1.5"></path><path d="M823.37 111.87L957.78 98.77" stroke="rgba(70, 26, 96, 1)" stroke-width="1.5"></path><path d="M823.37 111.87L810.72 260.82" stroke="rgba(70, 26, 96, 1)" stroke-width="1.5"></path><path d="M823.37 111.87L968.54 196.18" stroke="rgba(70, 26, 96, 1)" stroke-width="1.5"></path><path d="M823.37 111.87L941.32 -97.57" stroke="rgba(70, 26, 96, 1)" stroke-width="1.5"></path><path d="M823.37 111.87L709.67 380.46" stroke="rgba(70, 26, 96, 1)" stroke-width="1.5"></path><path d="M823.37 111.87L832 403.92" stroke="rgba(70, 26, 96, 1)" stroke-width="1.5"></path><path d="M810.72 260.82L810.72 260.82" stroke="rgba(70, 26, 96, 1)" stroke-width="1.5"></path><path d="M810.72 260.82L832 403.92" stroke="rgba(70, 26, 96, 1)" stroke-width="1.5"></path><path d="M832 403.92L832 403.92" stroke="rgba(70, 26, 96, 1)" stroke-width="1.5"></path><path d="M832 403.92L805.38 506.47" stroke="rgba(70, 26, 96, 1)" stroke-width="1.5"></path><path d="M832 403.92L944.41 383.52" stroke="rgba(70, 26, 96, 1)" stroke-width="1.5"></path><path d="M805.38 506.47L805.38 506.47" stroke="rgba(70, 26, 96, 1)" stroke-width="1.5"></path><path d="M805.38 506.47L952.81 519.38" stroke="rgba(70, 26, 96, 1)" stroke-width="1.5"></path><path d="M801.22 694.37L801.22 694.37" stroke="rgba(70, 26, 96, 1)" stroke-width="1.5"></path><path d="M801.22 694.37L652.82 649.61" stroke="rgba(70, 26, 96, 1)" stroke-width="1.5"></path><path d="M801.22 694.37L805.38 506.47" stroke="rgba(70, 26, 96, 1)" stroke-width="1.5"></path><path d="M801.22 694.37L987.29 656.62" stroke="rgba(70, 26, 96, 1)" stroke-width="1.5"></path><path d="M801.22 694.37L675.95 523.47" stroke="rgba(70, 26, 96, 1)" stroke-width="1.5"></path><path d="M801.22 694.37L952.81 519.38" stroke="rgba(70, 26, 96, 1)" stroke-width="1.5"></path><path d="M941.32 -97.57L941.32 -97.57" stroke="rgba(70, 26, 96, 1)" stroke-width="1.5"></path><path d="M941.32 -97.57L1122.22 -73.16" stroke="rgba(70, 26, 96, 1)" stroke-width="1.5"></path><path d="M941.32 -97.57L957.78 98.77" stroke="rgba(70, 26, 96, 1)" stroke-width="1.5"></path><path d="M957.78 98.77L957.78 98.77" stroke="rgba(70, 26, 96, 1)" stroke-width="1.5"></path><path d="M957.78 98.77L968.54 196.18" stroke="rgba(70, 26, 96, 1)" stroke-width="1.5"></path><path d="M957.78 98.77L1142.06 100.91" stroke="rgba(70, 26, 96, 1)" stroke-width="1.5"></path><path d="M968.54 196.18L968.54 196.18" stroke="rgba(70, 26, 96, 1)" stroke-width="1.5"></path><path d="M968.54 196.18L810.72 260.82" stroke="rgba(70, 26, 96, 1)" stroke-width="1.5"></path><path d="M968.54 196.18L1141.05 233.11" stroke="rgba(70, 26, 96, 1)" stroke-width="1.5"></path><path d="M968.54 196.18L944.41 383.52" stroke="rgba(70, 26, 96, 1)" stroke-width="1.5"></path><path d="M968.54 196.18L1142.06 100.91" stroke="rgba(70, 26, 96, 1)" stroke-width="1.5"></path><path d="M944.41 383.52L944.41 383.52" stroke="rgba(70, 26, 96, 1)" stroke-width="1.5"></path><path d="M944.41 383.52L952.81 519.38" stroke="rgba(70, 26, 96, 1)" stroke-width="1.5"></path><path d="M952.81 519.38L952.81 519.38" stroke="rgba(70, 26, 96, 1)" stroke-width="1.5"></path><path d="M952.81 519.38L987.29 656.62" stroke="rgba(70, 26, 96, 1)" stroke-width="1.5"></path><path d="M952.81 519.38L832 403.92" stroke="rgba(70, 26, 96, 1)" stroke-width="1.5"></path><path d="M952.81 519.38L1143.68 506.19" stroke="rgba(70, 26, 96, 1)" stroke-width="1.5"></path><path d="M952.81 519.38L1152.43 410.27" stroke="rgba(70, 26, 96, 1)" stroke-width="1.5"></path><path d="M987.29 656.62L987.29 656.62" stroke="rgba(70, 26, 96, 1)" stroke-width="1.5"></path><path d="M987.29 656.62L1143.68 506.19" stroke="rgba(70, 26, 96, 1)" stroke-width="1.5"></path><path d="M1122.22 -73.16L1122.22 -73.16" stroke="rgba(70, 26, 96, 1)" stroke-width="1.5"></path><path d="M1122.22 -73.16L1142.06 100.91" stroke="rgba(70, 26, 96, 1)" stroke-width="1.5"></path><path d="M1122.22 -73.16L1298.69 -49.97" stroke="rgba(70, 26, 96, 1)" stroke-width="1.5"></path><path d="M1122.22 -73.16L1294.94 57.53" stroke="rgba(70, 26, 96, 1)" stroke-width="1.5"></path><path d="M1142.06 100.91L1142.06 100.91" stroke="rgba(70, 26, 96, 1)" stroke-width="1.5"></path><path d="M1142.06 100.91L1141.05 233.11" stroke="rgba(70, 26, 96, 1)" stroke-width="1.5"></path><path d="M1142.06 100.91L1294.94 57.53" stroke="rgba(70, 26, 96, 1)" stroke-width="1.5"></path><path d="M1141.05 233.11L1141.05 233.11" stroke="rgba(70, 26, 96, 1)" stroke-width="1.5"></path><path d="M1141.05 233.11L1270.35 254.15" stroke="rgba(70, 26, 96, 1)" stroke-width="1.5"></path><path d="M1141.05 233.11L1152.43 410.27" stroke="rgba(70, 26, 96, 1)" stroke-width="1.5"></path><path d="M1152.43 410.27L1152.43 410.27" stroke="rgba(70, 26, 96, 1)" stroke-width="1.5"></path><path d="M1152.43 410.27L1143.68 506.19" stroke="rgba(70, 26, 96, 1)" stroke-width="1.5"></path><path d="M1152.43 410.27L1303.38 412.01" stroke="rgba(70, 26, 96, 1)" stroke-width="1.5"></path><path d="M1143.68 506.19L1143.68 506.19" stroke="rgba(70, 26, 96, 1)" stroke-width="1.5"></path><path d="M1143.68 506.19L1256.84 520.42" stroke="rgba(70, 26, 96, 1)" stroke-width="1.5"></path><path d="M1298.69 -49.97L1298.69 -49.97" stroke="rgba(70, 26, 96, 1)" stroke-width="1.5"></path><path d="M1298.69 -49.97L1294.94 57.53" stroke="rgba(70, 26, 96, 1)" stroke-width="1.5"></path><path d="M1298.69 -49.97L1418.37 -76.29" stroke="rgba(70, 26, 96, 1)" stroke-width="1.5"></path><path d="M1298.69 -49.97L1414.21 61.09" stroke="rgba(70, 26, 96, 1)" stroke-width="1.5"></path><path d="M1298.69 -49.97L1142.06 100.91" stroke="rgba(70, 26, 96, 1)" stroke-width="1.5"></path><path d="M1298.69 -49.97L1270.35 254.15" stroke="rgba(70, 26, 96, 1)" stroke-width="1.5"></path><path d="M1294.94 57.53L1294.94 57.53" stroke="rgba(70, 26, 96, 1)" stroke-width="1.5"></path><path d="M1294.94 57.53L1414.21 61.09" stroke="rgba(70, 26, 96, 1)" stroke-width="1.5"></path><path d="M1294.94 57.53L1418.37 -76.29" stroke="rgba(70, 26, 96, 1)" stroke-width="1.5"></path><path d="M1294.94 57.53L1270.35 254.15" stroke="rgba(70, 26, 96, 1)" stroke-width="1.5"></path><path d="M1294.94 57.53L1412.08 234.38" stroke="rgba(70, 26, 96, 1)" stroke-width="1.5"></path><path d="M1270.35 254.15L1270.35 254.15" stroke="rgba(70, 26, 96, 1)" stroke-width="1.5"></path><path d="M1270.35 254.15L1412.08 234.38" stroke="rgba(70, 26, 96, 1)" stroke-width="1.5"></path><path d="M1270.35 254.15L1303.38 412.01" stroke="rgba(70, 26, 96, 1)" stroke-width="1.5"></path><path d="M1270.35 254.15L1399.56 393.27" stroke="rgba(70, 26, 96, 1)" stroke-width="1.5"></path><path d="M1303.38 412.01L1303.38 412.01" stroke="rgba(70, 26, 96, 1)" stroke-width="1.5"></path><path d="M1303.38 412.01L1399.56 393.27" stroke="rgba(70, 26, 96, 1)" stroke-width="1.5"></path><path d="M1303.38 412.01L1256.84 520.42" stroke="rgba(70, 26, 96, 1)" stroke-width="1.5"></path><path d="M1256.84 520.42L1256.84 520.42" stroke="rgba(70, 26, 96, 1)" stroke-width="1.5"></path><path d="M1311.64 668.64L1311.64 668.64" stroke="rgba(70, 26, 96, 1)" stroke-width="1.5"></path><path d="M1311.64 668.64L1438.47 664.57" stroke="rgba(70, 26, 96, 1)" stroke-width="1.5"></path><path d="M1311.64 668.64L1256.84 520.42" stroke="rgba(70, 26, 96, 1)" stroke-width="1.5"></path><path d="M1311.64 668.64L1405.09 529.97" stroke="rgba(70, 26, 96, 1)" stroke-width="1.5"></path><path d="M1311.64 668.64L1143.68 506.19" stroke="rgba(70, 26, 96, 1)" stroke-width="1.5"></path><path d="M1311.64 668.64L1563.53 681.37" stroke="rgba(70, 26, 96, 1)" stroke-width="1.5"></path><path d="M1311.64 668.64L1303.38 412.01" stroke="rgba(70, 26, 96, 1)" stroke-width="1.5"></path><path d="M1418.37 -76.29L1418.37 -76.29" stroke="rgba(70, 26, 96, 1)" stroke-width="1.5"></path><path d="M1418.37 -76.29L1414.21 61.09" stroke="rgba(70, 26, 96, 1)" stroke-width="1.5"></path><path d="M1414.21 61.09L1414.21 61.09" stroke="rgba(70, 26, 96, 1)" stroke-width="1.5"></path><path d="M1412.08 234.38L1412.08 234.38" stroke="rgba(70, 26, 96, 1)" stroke-width="1.5"></path><path d="M1412.08 234.38L1399.56 393.27" stroke="rgba(70, 26, 96, 1)" stroke-width="1.5"></path><path d="M1412.08 234.38L1414.21 61.09" stroke="rgba(70, 26, 96, 1)" stroke-width="1.5"></path><path d="M1412.08 234.38L1601.83 196.49" stroke="rgba(70, 26, 96, 1)" stroke-width="1.5"></path><path d="M1399.56 393.27L1399.56 393.27" stroke="rgba(70, 26, 96, 1)" stroke-width="1.5"></path><path d="M1399.56 393.27L1405.09 529.97" stroke="rgba(70, 26, 96, 1)" stroke-width="1.5"></path><path d="M1405.09 529.97L1405.09 529.97" stroke="rgba(70, 26, 96, 1)" stroke-width="1.5"></path><path d="M1405.09 529.97L1438.47 664.57" stroke="rgba(70, 26, 96, 1)" stroke-width="1.5"></path><path d="M1438.47 664.57L1438.47 664.57" stroke="rgba(70, 26, 96, 1)" stroke-width="1.5"></path><path d="M1438.47 664.57L1563.53 681.37" stroke="rgba(70, 26, 96, 1)" stroke-width="1.5"></path><path d="M1610.73 -83.94L1610.73 -83.94" stroke="rgba(70, 26, 96, 1)" stroke-width="1.5"></path><path d="M1610.73 -83.94L1584.68 88" stroke="rgba(70, 26, 96, 1)" stroke-width="1.5"></path><path d="M1610.73 -83.94L1418.37 -76.29" stroke="rgba(70, 26, 96, 1)" stroke-width="1.5"></path><path d="M1610.73 -83.94L1414.21 61.09" stroke="rgba(70, 26, 96, 1)" stroke-width="1.5"></path><path d="M1610.73 -83.94L1601.83 196.49" stroke="rgba(70, 26, 96, 1)" stroke-width="1.5"></path><path d="M1610.73 -83.94L1298.69 -49.97" stroke="rgba(70, 26, 96, 1)" stroke-width="1.5"></path><path d="M1610.73 -83.94L1294.94 57.53" stroke="rgba(70, 26, 96, 1)" stroke-width="1.5"></path><path d="M1584.68 88L1584.68 88" stroke="rgba(70, 26, 96, 1)" stroke-width="1.5"></path><path d="M1584.68 88L1601.83 196.49" stroke="rgba(70, 26, 96, 1)" stroke-width="1.5"></path><path d="M1584.68 88L1414.21 61.09" stroke="rgba(70, 26, 96, 1)" stroke-width="1.5"></path><path d="M1584.68 88L1412.08 234.38" stroke="rgba(70, 26, 96, 1)" stroke-width="1.5"></path><path d="M1584.68 88L1418.37 -76.29" stroke="rgba(70, 26, 96, 1)" stroke-width="1.5"></path><path d="M1584.68 88L1294.94 57.53" stroke="rgba(70, 26, 96, 1)" stroke-width="1.5"></path><path d="M1601.83 196.49L1601.83 196.49" stroke="rgba(70, 26, 96, 1)" stroke-width="1.5"></path><path d="M1601.83 196.49L1414.21 61.09" stroke="rgba(70, 26, 96, 1)" stroke-width="1.5"></path><path d="M1548.76 489.73L1548.76 489.73" stroke="rgba(70, 26, 96, 1)" stroke-width="1.5"></path><path d="M1548.76 489.73L1405.09 529.97" stroke="rgba(70, 26, 96, 1)" stroke-width="1.5"></path><path d="M1548.76 489.73L1399.56 393.27" stroke="rgba(70, 26, 96, 1)" stroke-width="1.5"></path><path d="M1563.53 681.37L1563.53 681.37" stroke="rgba(70, 26, 96, 1)" stroke-width="1.5"></path><path d="M1563.53 681.37L1548.76 489.73" stroke="rgba(70, 26, 96, 1)" stroke-width="1.5"></path><path d="M1563.53 681.37L1405.09 529.97" stroke="rgba(70, 26, 96, 1)" stroke-width="1.5"></path><path d="M1563.53 681.37L1399.56 393.27" stroke="rgba(70, 26, 96, 1)" stroke-width="1.5"></path><path d="M1563.53 681.37L1256.84 520.42" stroke="rgba(70, 26, 96, 1)" stroke-width="1.5"></path><circle r="5" cx="-62.51" cy="348.76" fill="rgba(70, 26, 96, 1)"></circle><circle r="5" cx="-80.17" cy="526.66" fill="rgba(70, 26, 96, 1)"></circle><circle r="5" cx="-49.42" cy="693.59" fill="rgba(70, 26, 96, 1)"></circle><circle r="5" cx="43.49" cy="388.58" fill="rgba(70, 26, 96, 1)"></circle><circle r="5" cx="66.1" cy="537.61" fill="rgba(70, 26, 96, 1)"></circle><circle r="5" cx="188.92" cy="411.68" fill="rgba(70, 26, 96, 1)"></circle><circle r="5" cx="190.52" cy="503.69" fill="rgba(70, 26, 96, 1)"></circle><circle r="5" cx="212.46" cy="665.82" fill="rgba(70, 26, 96, 1)"></circle><circle r="5" cx="379.74" cy="386.5" fill="rgba(70, 26, 96, 1)"></circle><circle r="5" cx="404.78" cy="489.22" fill="rgba(70, 26, 96, 1)"></circle><circle r="5" cx="387.01" cy="708.45" fill="rgba(70, 26, 96, 1)"></circle><circle r="5" cx="491.43" cy="407.52" fill="rgba(70, 26, 96, 1)"></circle><circle r="5" cx="508.15" cy="503.74" fill="rgba(70, 26, 96, 1)"></circle><circle r="5" cx="524.48" cy="681.39" fill="rgba(70, 26, 96, 1)"></circle><circle r="5" cx="709.67" cy="380.46" fill="rgba(70, 26, 96, 1)"></circle><circle r="5" cx="675.95" cy="523.47" fill="rgba(70, 26, 96, 1)"></circle><circle r="5" cx="652.82" cy="649.61" fill="rgba(70, 26, 96, 1)"></circle><circle r="5" cx="823.37" cy="111.87" fill="rgba(70, 26, 96, 1)"></circle><circle r="5" cx="810.72" cy="260.82" fill="rgba(70, 26, 96, 1)"></circle><circle r="5" cx="832" cy="403.92" fill="rgba(70, 26, 96, 1)"></circle><circle r="5" cx="805.38" cy="506.47" fill="rgba(70, 26, 96, 1)"></circle><circle r="5" cx="801.22" cy="694.37" fill="rgba(70, 26, 96, 1)"></circle><circle r="5" cx="941.32" cy="-97.57" fill="rgba(70, 26, 96, 1)"></circle><circle r="5" cx="957.78" cy="98.77" fill="rgba(70, 26, 96, 1)"></circle><circle r="5" cx="968.54" cy="196.18" fill="rgba(70, 26, 96, 1)"></circle><circle r="5" cx="944.41" cy="383.52" fill="rgba(70, 26, 96, 1)"></circle><circle r="5" cx="952.81" cy="519.38" fill="rgba(70, 26, 96, 1)"></circle><circle r="5" cx="987.29" cy="656.62" fill="rgba(70, 26, 96, 1)"></circle><circle r="5" cx="1122.22" cy="-73.16" fill="rgba(70, 26, 96, 1)"></circle><circle r="5" cx="1142.06" cy="100.91" fill="rgba(70, 26, 96, 1)"></circle><circle r="5" cx="1141.05" cy="233.11" fill="rgba(70, 26, 96, 1)"></circle><circle r="5" cx="1152.43" cy="410.27" fill="rgba(70, 26, 96, 1)"></circle><circle r="5" cx="1143.68" cy="506.19" fill="rgba(70, 26, 96, 1)"></circle><circle r="5" cx="1298.69" cy="-49.97" fill="rgba(70, 26, 96, 1)"></circle><circle r="5" cx="1294.94" cy="57.53" fill="rgba(70, 26, 96, 1)"></circle><circle r="5" cx="1270.35" cy="254.15" fill="rgba(70, 26, 96, 1)"></circle><circle r="5" cx="1303.38" cy="412.01" fill="rgba(70, 26, 96, 1)"></circle><circle r="5" cx="1256.84" cy="520.42" fill="rgba(70, 26, 96, 1)"></circle><circle r="5" cx="1311.64" cy="668.64" fill="rgba(70, 26, 96, 1)"></circle><circle r="5" cx="1418.37" cy="-76.29" fill="rgba(70, 26, 96, 1)"></circle><circle r="5" cx="1414.21" cy="61.09" fill="rgba(70, 26, 96, 1)"></circle><circle r="5" cx="1412.08" cy="234.38" fill="rgba(70, 26, 96, 1)"></circle><circle r="5" cx="1399.56" cy="393.27" fill="rgba(70, 26, 96, 1)"></circle><circle r="5" cx="1405.09" cy="529.97" fill="rgba(70, 26, 96, 1)"></circle><circle r="5" cx="1438.47" cy="664.57" fill="rgba(70, 26, 96, 1)"></circle><circle r="5" cx="1610.73" cy="-83.94" fill="rgba(70, 26, 96, 1)"></circle><circle r="5" cx="1584.68" cy="88" fill="rgba(70, 26, 96, 1)"></circle><circle r="5" cx="1601.83" cy="196.49" fill="rgba(70, 26, 96, 1)"></circle><circle r="5" cx="1548.76" cy="489.73" fill="rgba(70, 26, 96, 1)"></circle><circle r="5" cx="1563.53" cy="681.37" fill="rgba(70, 26, 96, 1)"></circle><path d="M-41.29 537.55L-41.29 537.55" stroke="hsl(288.5, 77.2%, 51.5%)" stroke-width="1.5"></path><path d="M-41.29 537.55L60.59 554.83" stroke="hsl(288.5, 77.2%, 51.5%)" stroke-width="1.5"></path><path d="M-41.29 537.55L-41.7 663.28" stroke="hsl(288.5, 77.2%, 51.5%)" stroke-width="1.5"></path><path d="M-41.29 537.55L201.26 678.35" stroke="hsl(288.5, 77.2%, 51.5%)" stroke-width="1.5"></path><path d="M-41.29 537.55L372.69 653.64" stroke="hsl(288.5, 77.2%, 51.5%)" stroke-width="1.5"></path><path d="M-41.29 537.55L389.94 543.3" stroke="hsl(288.5, 77.2%, 51.5%)" stroke-width="1.5"></path><path d="M940.53 344.69L940.53 344.69" stroke="hsl(288.5, 77.2%, 51.5%)" stroke-width="1.5"></path><path d="M940.53 344.69L816.34 402.16" stroke="hsl(288.5, 77.2%, 51.5%)" stroke-width="1.5"></path><path d="M940.53 344.69L845.79 502.85" stroke="hsl(288.5, 77.2%, 51.5%)" stroke-width="1.5"></path><path d="M940.53 344.69L1138.41 380.93" stroke="hsl(288.5, 77.2%, 51.5%)" stroke-width="1.5"></path><path d="M1250.71 686.07L1250.71 686.07" stroke="hsl(288.5, 77.2%, 51.5%)" stroke-width="1.5"></path><path d="M1250.71 686.07L1105.97 672.86" stroke="hsl(288.5, 77.2%, 51.5%)" stroke-width="1.5"></path><path d="M1250.71 686.07L1444.46 689.96" stroke="hsl(288.5, 77.2%, 51.5%)" stroke-width="1.5"></path><path d="M1250.71 686.07L1405.71 562.06" stroke="hsl(288.5, 77.2%, 51.5%)" stroke-width="1.5"></path><path d="M1391.36 -57.97L1391.36 -57.97" stroke="hsl(288.5, 77.2%, 51.5%)" stroke-width="1.5"></path><path d="M1391.36 -57.97L1541.02 -48.23" stroke="hsl(288.5, 77.2%, 51.5%)" stroke-width="1.5"></path><path d="M1391.36 -57.97L1432.75 103.31" stroke="hsl(288.5, 77.2%, 51.5%)" stroke-width="1.5"></path><path d="M1391.36 -57.97L1241.13 38.64" stroke="hsl(288.5, 77.2%, 51.5%)" stroke-width="1.5"></path><path d="M1391.36 -57.97L1606.11 57.57" stroke="hsl(288.5, 77.2%, 51.5%)" stroke-width="1.5"></path><path d="M1567.09 494.62L1567.09 494.62" stroke="hsl(288.5, 77.2%, 51.5%)" stroke-width="1.5"></path><path d="M1567.09 494.62L1560.86 390.12" stroke="hsl(288.5, 77.2%, 51.5%)" stroke-width="1.5"></path><path d="M1567.09 494.62L1447.61 385.41" stroke="hsl(288.5, 77.2%, 51.5%)" stroke-width="1.5"></path><path d="M1567.09 494.62L1405.71 562.06" stroke="hsl(288.5, 77.2%, 51.5%)" stroke-width="1.5"></path><path d="M1601.25 703.55L1601.25 703.55" stroke="hsl(288.5, 77.2%, 51.5%)" stroke-width="1.5"></path><path d="M1601.25 703.55L1444.46 689.96" stroke="hsl(288.5, 77.2%, 51.5%)" stroke-width="1.5"></path><path d="M1601.25 703.55L1567.09 494.62" stroke="hsl(288.5, 77.2%, 51.5%)" stroke-width="1.5"></path><path d="M1601.25 703.55L1405.71 562.06" stroke="hsl(288.5, 77.2%, 51.5%)" stroke-width="1.5"></path><path d="M-41.7 663.28L-41.7 663.28" stroke="hsl(288.5, 77.2%, 51.5%)" stroke-width="1.5"></path><path d="M-41.7 663.28L60.59 554.83" stroke="hsl(288.5, 77.2%, 51.5%)" stroke-width="1.5"></path><path d="M-41.7 663.28L201.26 678.35" stroke="hsl(288.5, 77.2%, 51.5%)" stroke-width="1.5"></path><path d="M-41.7 663.28L372.69 653.64" stroke="hsl(288.5, 77.2%, 51.5%)" stroke-width="1.5"></path><path d="M-41.7 663.28L389.94 543.3" stroke="hsl(288.5, 77.2%, 51.5%)" stroke-width="1.5"></path><path d="M-41.7 663.28L530.09 660.51" stroke="hsl(288.5, 77.2%, 51.5%)" stroke-width="1.5"></path><path d="M60.59 554.83L60.59 554.83" stroke="hsl(288.5, 77.2%, 51.5%)" stroke-width="1.5"></path><path d="M201.26 678.35L201.26 678.35" stroke="hsl(288.5, 77.2%, 51.5%)" stroke-width="1.5"></path><path d="M201.26 678.35L372.69 653.64" stroke="hsl(288.5, 77.2%, 51.5%)" stroke-width="1.5"></path><path d="M201.26 678.35L60.59 554.83" stroke="hsl(288.5, 77.2%, 51.5%)" stroke-width="1.5"></path><path d="M201.26 678.35L389.94 543.3" stroke="hsl(288.5, 77.2%, 51.5%)" stroke-width="1.5"></path><path d="M389.94 543.3L389.94 543.3" stroke="hsl(288.5, 77.2%, 51.5%)" stroke-width="1.5"></path><path d="M389.94 543.3L372.69 653.64" stroke="hsl(288.5, 77.2%, 51.5%)" stroke-width="1.5"></path><path d="M389.94 543.3L544.36 490.47" stroke="hsl(288.5, 77.2%, 51.5%)" stroke-width="1.5"></path><path d="M372.69 653.64L372.69 653.64" stroke="hsl(288.5, 77.2%, 51.5%)" stroke-width="1.5"></path><path d="M372.69 653.64L530.09 660.51" stroke="hsl(288.5, 77.2%, 51.5%)" stroke-width="1.5"></path><path d="M552.1 398.64L552.1 398.64" stroke="hsl(288.5, 77.2%, 51.5%)" stroke-width="1.5"></path><path d="M552.1 398.64L544.36 490.47" stroke="hsl(288.5, 77.2%, 51.5%)" stroke-width="1.5"></path><path d="M552.1 398.64L690.9 520.52" stroke="hsl(288.5, 77.2%, 51.5%)" stroke-width="1.5"></path><path d="M552.1 398.64L389.94 543.3" stroke="hsl(288.5, 77.2%, 51.5%)" stroke-width="1.5"></path><path d="M552.1 398.64L530.09 660.51" stroke="hsl(288.5, 77.2%, 51.5%)" stroke-width="1.5"></path><path d="M552.1 398.64L816.34 402.16" stroke="hsl(288.5, 77.2%, 51.5%)" stroke-width="1.5"></path><path d="M544.36 490.47L544.36 490.47" stroke="hsl(288.5, 77.2%, 51.5%)" stroke-width="1.5"></path><path d="M544.36 490.47L690.9 520.52" stroke="hsl(288.5, 77.2%, 51.5%)" stroke-width="1.5"></path><path d="M530.09 660.51L530.09 660.51" stroke="hsl(288.5, 77.2%, 51.5%)" stroke-width="1.5"></path><path d="M530.09 660.51L544.36 490.47" stroke="hsl(288.5, 77.2%, 51.5%)" stroke-width="1.5"></path><path d="M530.09 660.51L389.94 543.3" stroke="hsl(288.5, 77.2%, 51.5%)" stroke-width="1.5"></path><path d="M690.9 520.52L690.9 520.52" stroke="hsl(288.5, 77.2%, 51.5%)" stroke-width="1.5"></path><path d="M816.34 402.16L816.34 402.16" stroke="hsl(288.5, 77.2%, 51.5%)" stroke-width="1.5"></path><path d="M816.34 402.16L845.79 502.85" stroke="hsl(288.5, 77.2%, 51.5%)" stroke-width="1.5"></path><path d="M845.79 502.85L845.79 502.85" stroke="hsl(288.5, 77.2%, 51.5%)" stroke-width="1.5"></path><path d="M845.79 502.85L845.41 641.27" stroke="hsl(288.5, 77.2%, 51.5%)" stroke-width="1.5"></path><path d="M845.79 502.85L690.9 520.52" stroke="hsl(288.5, 77.2%, 51.5%)" stroke-width="1.5"></path><path d="M845.41 641.27L845.41 641.27" stroke="hsl(288.5, 77.2%, 51.5%)" stroke-width="1.5"></path><path d="M845.41 641.27L996.91 704.58" stroke="hsl(288.5, 77.2%, 51.5%)" stroke-width="1.5"></path><path d="M845.41 641.27L690.9 520.52" stroke="hsl(288.5, 77.2%, 51.5%)" stroke-width="1.5"></path><path d="M845.41 641.27L816.34 402.16" stroke="hsl(288.5, 77.2%, 51.5%)" stroke-width="1.5"></path><path d="M845.41 641.27L1105.97 672.86" stroke="hsl(288.5, 77.2%, 51.5%)" stroke-width="1.5"></path><path d="M996.91 704.58L996.91 704.58" stroke="hsl(288.5, 77.2%, 51.5%)" stroke-width="1.5"></path><path d="M996.91 704.58L1105.97 672.86" stroke="hsl(288.5, 77.2%, 51.5%)" stroke-width="1.5"></path><path d="M996.91 704.58L1094.64 523.02" stroke="hsl(288.5, 77.2%, 51.5%)" stroke-width="1.5"></path><path d="M996.91 704.58L845.79 502.85" stroke="hsl(288.5, 77.2%, 51.5%)" stroke-width="1.5"></path><path d="M1159.91 40.77L1159.91 40.77" stroke="hsl(288.5, 77.2%, 51.5%)" stroke-width="1.5"></path><path d="M1159.91 40.77L1241.13 38.64" stroke="hsl(288.5, 77.2%, 51.5%)" stroke-width="1.5"></path><path d="M1159.91 40.77L1156.74 236.68" stroke="hsl(288.5, 77.2%, 51.5%)" stroke-width="1.5"></path><path d="M1159.91 40.77L1311.95 218.85" stroke="hsl(288.5, 77.2%, 51.5%)" stroke-width="1.5"></path><path d="M1159.91 40.77L1391.36 -57.97" stroke="hsl(288.5, 77.2%, 51.5%)" stroke-width="1.5"></path><path d="M1156.74 236.68L1156.74 236.68" stroke="hsl(288.5, 77.2%, 51.5%)" stroke-width="1.5"></path><path d="M1156.74 236.68L1138.41 380.93" stroke="hsl(288.5, 77.2%, 51.5%)" stroke-width="1.5"></path><path d="M1156.74 236.68L1311.95 218.85" stroke="hsl(288.5, 77.2%, 51.5%)" stroke-width="1.5"></path><path d="M1138.41 380.93L1138.41 380.93" stroke="hsl(288.5, 77.2%, 51.5%)" stroke-width="1.5"></path><path d="M1138.41 380.93L1094.64 523.02" stroke="hsl(288.5, 77.2%, 51.5%)" stroke-width="1.5"></path><path d="M1094.64 523.02L1094.64 523.02" stroke="hsl(288.5, 77.2%, 51.5%)" stroke-width="1.5"></path><path d="M1094.64 523.02L1105.97 672.86" stroke="hsl(288.5, 77.2%, 51.5%)" stroke-width="1.5"></path><path d="M1105.97 672.86L1105.97 672.86" stroke="hsl(288.5, 77.2%, 51.5%)" stroke-width="1.5"></path><path d="M1105.97 672.86L1138.41 380.93" stroke="hsl(288.5, 77.2%, 51.5%)" stroke-width="1.5"></path><path d="M1241.13 38.64L1241.13 38.64" stroke="hsl(288.5, 77.2%, 51.5%)" stroke-width="1.5"></path><path d="M1311.95 218.85L1311.95 218.85" stroke="hsl(288.5, 77.2%, 51.5%)" stroke-width="1.5"></path><path d="M1311.95 218.85L1443.34 227.3" stroke="hsl(288.5, 77.2%, 51.5%)" stroke-width="1.5"></path><path d="M1432.75 103.31L1432.75 103.31" stroke="hsl(288.5, 77.2%, 51.5%)" stroke-width="1.5"></path><path d="M1432.75 103.31L1443.34 227.3" stroke="hsl(288.5, 77.2%, 51.5%)" stroke-width="1.5"></path><path d="M1432.75 103.31L1311.95 218.85" stroke="hsl(288.5, 77.2%, 51.5%)" stroke-width="1.5"></path><path d="M1432.75 103.31L1606.11 57.57" stroke="hsl(288.5, 77.2%, 51.5%)" stroke-width="1.5"></path><path d="M1443.34 227.3L1443.34 227.3" stroke="hsl(288.5, 77.2%, 51.5%)" stroke-width="1.5"></path><path d="M1443.34 227.3L1597.95 202.92" stroke="hsl(288.5, 77.2%, 51.5%)" stroke-width="1.5"></path><path d="M1443.34 227.3L1447.61 385.41" stroke="hsl(288.5, 77.2%, 51.5%)" stroke-width="1.5"></path><path d="M1443.34 227.3L1560.86 390.12" stroke="hsl(288.5, 77.2%, 51.5%)" stroke-width="1.5"></path><path d="M1447.61 385.41L1447.61 385.41" stroke="hsl(288.5, 77.2%, 51.5%)" stroke-width="1.5"></path><path d="M1447.61 385.41L1560.86 390.12" stroke="hsl(288.5, 77.2%, 51.5%)" stroke-width="1.5"></path><path d="M1405.71 562.06L1405.71 562.06" stroke="hsl(288.5, 77.2%, 51.5%)" stroke-width="1.5"></path><path d="M1405.71 562.06L1444.46 689.96" stroke="hsl(288.5, 77.2%, 51.5%)" stroke-width="1.5"></path><path d="M1405.71 562.06L1447.61 385.41" stroke="hsl(288.5, 77.2%, 51.5%)" stroke-width="1.5"></path><path d="M1405.71 562.06L1560.86 390.12" stroke="hsl(288.5, 77.2%, 51.5%)" stroke-width="1.5"></path><path d="M1444.46 689.96L1444.46 689.96" stroke="hsl(288.5, 77.2%, 51.5%)" stroke-width="1.5"></path><path d="M1444.46 689.96L1567.09 494.62" stroke="hsl(288.5, 77.2%, 51.5%)" stroke-width="1.5"></path><path d="M1444.46 689.96L1447.61 385.41" stroke="hsl(288.5, 77.2%, 51.5%)" stroke-width="1.5"></path><path d="M1444.46 689.96L1560.86 390.12" stroke="hsl(288.5, 77.2%, 51.5%)" stroke-width="1.5"></path><path d="M1541.02 -48.23L1541.02 -48.23" stroke="hsl(288.5, 77.2%, 51.5%)" stroke-width="1.5"></path><path d="M1541.02 -48.23L1606.11 57.57" stroke="hsl(288.5, 77.2%, 51.5%)" stroke-width="1.5"></path><path d="M1606.11 57.57L1606.11 57.57" stroke="hsl(288.5, 77.2%, 51.5%)" stroke-width="1.5"></path><path d="M1606.11 57.57L1597.95 202.92" stroke="hsl(288.5, 77.2%, 51.5%)" stroke-width="1.5"></path><path d="M1597.95 202.92L1597.95 202.92" stroke="hsl(288.5, 77.2%, 51.5%)" stroke-width="1.5"></path><path d="M1597.95 202.92L1560.86 390.12" stroke="hsl(288.5, 77.2%, 51.5%)" stroke-width="1.5"></path><path d="M1597.95 202.92L1432.75 103.31" stroke="hsl(288.5, 77.2%, 51.5%)" stroke-width="1.5"></path><path d="M1597.95 202.92L1447.61 385.41" stroke="hsl(288.5, 77.2%, 51.5%)" stroke-width="1.5"></path><path d="M1597.95 202.92L1541.02 -48.23" stroke="hsl(288.5, 77.2%, 51.5%)" stroke-width="1.5"></path><path d="M1560.86 390.12L1560.86 390.12" stroke="hsl(288.5, 77.2%, 51.5%)" stroke-width="1.5"></path><path d="M1560.86 390.12L1311.95 218.85" stroke="hsl(288.5, 77.2%, 51.5%)" stroke-width="1.5"></path><circle r="25" cx="-41.29" cy="537.55" fill="url(#SvgjsRadialGradient4778)"></circle><circle r="25" cx="940.53" cy="344.69" fill="url(#SvgjsRadialGradient4778)"></circle><circle r="25" cx="1250.71" cy="686.07" fill="url(#SvgjsRadialGradient4778)"></circle><circle r="25" cx="1391.36" cy="-57.97" fill="url(#SvgjsRadialGradient4778)"></circle><circle r="25" cx="1567.09" cy="494.62" fill="url(#SvgjsRadialGradient4778)"></circle><circle r="25" cx="1601.25" cy="703.55" fill="url(#SvgjsRadialGradient4778)"></circle><circle r="5" cx="-41.7" cy="663.28" fill="#ca8bd9"></circle><circle r="5" cx="60.59" cy="554.83" fill="#ca8bd9"></circle><circle r="5" cx="201.26" cy="678.35" fill="#ca8bd9"></circle><circle r="5" cx="389.94" cy="543.3" fill="#ca8bd9"></circle><circle r="5" cx="372.69" cy="653.64" fill="#ca8bd9"></circle><circle r="5" cx="552.1" cy="398.64" fill="#ca8bd9"></circle><circle r="5" cx="544.36" cy="490.47" fill="#ca8bd9"></circle><circle r="5" cx="530.09" cy="660.51" fill="#ca8bd9"></circle><circle r="5" cx="690.9" cy="520.52" fill="#ca8bd9"></circle><circle r="5" cx="816.34" cy="402.16" fill="#ca8bd9"></circle><circle r="5" cx="845.79" cy="502.85" fill="#ca8bd9"></circle><circle r="5" cx="845.41" cy="641.27" fill="#ca8bd9"></circle><circle r="5" cx="996.91" cy="704.58" fill="#ca8bd9"></circle><circle r="5" cx="1159.91" cy="40.77" fill="#ca8bd9"></circle><circle r="5" cx="1156.74" cy="236.68" fill="#ca8bd9"></circle><circle r="5" cx="1138.41" cy="380.93" fill="#ca8bd9"></circle><circle r="5" cx="1094.64" cy="523.02" fill="#ca8bd9"></circle><circle r="5" cx="1105.97" cy="672.86" fill="#ca8bd9"></circle><circle r="5" cx="1241.13" cy="38.64" fill="#ca8bd9"></circle><circle r="5" cx="1311.95" cy="218.85" fill="#ca8bd9"></circle><circle r="5" cx="1432.75" cy="103.31" fill="#ca8bd9"></circle><circle r="5" cx="1443.34" cy="227.3" fill="#ca8bd9"></circle><circle r="5" cx="1447.61" cy="385.41" fill="#ca8bd9"></circle><circle r="5" cx="1405.71" cy="562.06" fill="#ca8bd9"></circle><circle r="5" cx="1444.46" cy="689.96" fill="#ca8bd9"></circle><circle r="5" cx="1541.02" cy="-48.23" fill="#ca8bd9"></circle><circle r="5" cx="1606.11" cy="57.57" fill="#ca8bd9"></circle><circle r="5" cx="1597.95" cy="202.92" fill="#ca8bd9"></circle><circle r="5" cx="1560.86" cy="390.12" fill="#ca8bd9"></circle></g><defs><mask id="SvgjsMask4776"><rect width="1440" height="560" fill="#ffffff"></rect></mask><linearGradient x1="100%" y1="50%" x2="0%" y2="50%" gradientUnits="userSpaceOnUse" id="SvgjsLinearGradient4777"><stop stop-color="rgba(97, 0, 149, 1)" offset="0.01"></stop><stop stop-color="rgba(0, 77, 177, 1)" offset="0.18"></stop><stop stop-color="rgba(0, 62, 142, 1)" offset="0.24"></stop><stop stop-color="rgba(0, 66, 151, 1)" offset="0.44"></stop><stop stop-color="rgba(0, 99, 227, 1)" offset="0.83"></stop><stop stop-color="rgba(0, 61, 140, 1)" offset="1"></stop></linearGradient><radialGradient id="SvgjsRadialGradient4778"><stop stop-color="#ffffff" offset="0.1"></stop><stop stop-color="rgba(149, 23, 179, 1)" offset="0.2"></stop><stop stop-color="rgba(149, 23, 179, 0)" offset="1"></stop></radialGradient></defs></svg>